<svg width="154" height="32" viewBox="0 0 154 32" fill="none" xmlns="http://www.w3.org/2000/svg">
<path d="M28.6579 19.0447V19.0517V19.0438C27.7556 19.091 26.8145 19.1315 25.8348 19.1653C25.4757 19.1719 25.1217 19.251 24.7938 19.3978C24.45 19.5481 24.2545 19.7264 24.0136 19.9624C22.8318 21.1278 21.2399 21.7811 19.5814 21.7811C17.923 21.7811 16.331 21.1278 15.1492 19.9624C14.9248 19.7268 14.6585 19.5353 14.3639 19.3978C14.0343 19.256 13.6812 19.1772 13.3228 19.1653C12.3454 19.1321 11.4029 19.091 10.5006 19.0438V19.0517V19.0447L9.80949 19.0054V19.1802C10.3047 19.383 10.7295 19.7271 11.0312 20.1695H11.0364C11.8819 21.6952 13.1186 22.9673 14.6189 23.8545C16.1192 24.7416 17.8287 25.2116 19.571 25.2161H19.5884C21.3305 25.2118 23.04 24.7417 24.5401 23.8546C26.0403 22.9674 27.2768 21.6953 28.1221 20.1695H28.1273C28.4292 19.7272 28.8539 19.3832 29.349 19.1802V19.0054L28.6579 19.0447Z" fill="#131313"/>
<path d="M31.1475 14.7332C29.4022 14.3722 29.034 12.7579 29.034 12.7579C28.4447 10.7152 27.2086 8.91963 25.5119 7.64165C23.8152 6.36368 21.7498 5.67251 19.6268 5.67232H19.5814C17.4585 5.67251 15.393 6.36368 13.6963 7.64165C11.9996 8.91963 10.7635 10.7152 10.1742 12.7579C10.1742 12.7579 9.80336 14.3722 8.06155 14.7332C3.1747 15.0898 0 15.6675 0 16.3195C0 17.0589 4.09012 17.7031 10.128 18.037C10.128 18.0536 13.8306 18.2117 13.8228 18.1943C15.644 18.2502 17.5752 18.2817 19.5823 18.2817H19.6277C21.6348 18.2817 23.566 18.2519 25.3872 18.1943C25.3793 18.21 29.0776 18.0536 29.082 18.037C35.1207 17.7031 39.21 17.0589 39.21 16.3195C39.2082 15.6675 36.0326 15.0898 31.1475 14.7332ZM25.587 15.1501C25.4643 15.3319 25.3055 15.4864 25.1206 15.604C24.9356 15.7216 24.7284 15.7998 24.5119 15.8336C21.2631 16.3801 17.946 16.3801 14.6972 15.8336C14.4806 15.7998 14.2733 15.7216 14.0882 15.604C13.9031 15.4864 13.7441 15.3319 13.6212 15.1501C13.2451 14.6021 13.4048 13.9396 13.4249 13.8627C13.7817 12.4996 14.5794 11.2934 15.6933 10.4325C16.8072 9.57164 18.1745 9.10465 19.5814 9.10455H19.6277C21.0344 9.10554 22.4012 9.57289 23.5149 10.4336C24.6286 11.2943 25.4266 12.5001 25.7842 13.8627C25.8017 13.9396 25.964 14.6021 25.587 15.1527V15.1501Z" fill="#131313"/>
<path d="M20.0675 1.14848C19.9451 1.04913 19.7936 0.992479 19.6362 0.987116C19.4787 0.981753 19.3237 1.02798 19.1948 1.11877L0.669317 14.6414L19.2228 0.220266C19.3446 0.131687 19.4911 0.0835758 19.6417 0.0826353C19.7922 0.0816948 19.9393 0.127967 20.0623 0.215017C20.0623 0.215017 38.9333 14.5698 38.9848 14.6108C39.0257 14.6469 39.0528 14.6962 39.0614 14.7501C39.07 14.804 39.0596 14.8592 39.032 14.9063C39.008 14.9431 38.9736 14.9718 38.9331 14.9888C38.8927 15.0058 38.848 15.0102 38.8051 15.0015C38.1671 14.8045 37.5182 14.6448 36.8617 14.5234C36.6631 14.5005 36.4769 14.4148 36.3302 14.2787C36.1339 14.1249 20.0675 1.14848 20.0675 1.14848Z" fill="#131313"/>
<path d="M38.8496 15.005C38.9715 15.005 39.0704 14.906 39.0704 14.7839C39.0704 14.6618 38.9715 14.5628 38.8496 14.5628C38.7276 14.5628 38.6288 14.6618 38.6288 14.7839C38.6288 14.906 38.7276 15.005 38.8496 15.005Z" fill="#131313"/>
<path d="M20.1164 31.0212C19.9874 31.1119 19.8324 31.158 19.6749 31.1525C19.5175 31.147 19.3661 31.0901 19.2437 30.9906L3.38853 18.7545C3.24178 18.6185 3.05563 18.5329 2.85705 18.5098C2.56035 18.453 1.27932 18.1445 0.959932 18.0658C0.938563 18.0567 0.915876 18.0511 0.892736 18.0492H0.875266C0.832936 18.0493 0.791605 18.0619 0.756469 18.0856C0.721333 18.1092 0.693971 18.1428 0.677896 18.182C0.661822 18.2212 0.657764 18.2643 0.666179 18.3059C0.674594 18.3474 0.69513 18.3856 0.725194 18.4154L0.732181 18.4207C0.744456 18.4317 0.757916 18.4414 0.77232 18.4495L19.249 31.8682C19.3721 31.9548 19.5191 32.0009 19.6695 32C19.82 31.999 19.9664 31.9511 20.0884 31.8629L38.2396 18.3892L20.1164 31.0212Z" fill="#131313"/>
<path d="M57.4336 9.85011C57.4336 12.1278 55.7083 13.4379 52.3547 13.4379H46.0254V0.152952H51.976C55.0303 0.152952 56.732 1.44302 56.732 3.58784C56.732 5.03083 55.9928 6.03505 54.9509 6.54897C56.4475 6.96587 57.4336 8.08548 57.4336 9.85011ZM47.9217 1.68947V5.94066H51.8067C53.7396 5.94066 54.8392 5.21958 54.8392 3.81504C54.8392 2.41051 53.7379 1.69297 51.8067 1.69297L47.9217 1.68947ZM55.5207 9.69891C55.5207 8.16152 54.3863 7.47803 52.2806 7.47803H47.9217V11.9005H52.2806C54.3819 11.9005 55.519 11.2363 55.519 9.69891H55.5207Z" fill="#131313"/>
<path d="M75.7846 12.7929L73.3787 9.36155C73.1169 9.38078 72.8289 9.39911 72.5453 9.39911H69.2667V13.4423H67.3713V0.157347H72.5453C75.994 0.157347 78.0779 1.90537 78.0779 4.7896C78.0779 6.84003 77.0167 8.31973 75.1597 8.98485L78.3057 13.4423H77.0324C76.7877 13.4421 76.5466 13.383 76.3294 13.27C76.1123 13.157 75.9254 12.9934 75.7846 12.7929ZM76.1833 4.78695C76.1833 2.88948 74.9137 1.80747 72.4877 1.80747H69.2667V7.78569H72.4886C74.9137 7.78132 76.1833 6.68095 76.1833 4.7826V4.78695Z" fill="#131313"/>
<path d="M97.4542 10.1158H90.4041L88.945 13.437H86.9938L92.3641 1.55926C92.5538 1.13919 92.8607 0.78287 93.2477 0.533113C93.6346 0.283356 94.0853 0.150738 94.5457 0.151203H94.8782L100.905 13.4362H99.8357C99.5618 13.4362 99.2939 13.3564 99.0645 13.2065C98.8352 13.0566 98.6544 12.843 98.5442 12.5919L97.4542 10.1158ZM96.7902 8.59765L93.9287 2.08802L91.0673 8.59765H96.7902Z" fill="#131313"/>
<path d="M131.892 0.152099H132.709V12.0316C132.709 12.2163 132.673 12.3991 132.603 12.5697C132.532 12.7404 132.429 12.8954 132.299 13.0259C132.168 13.1565 132.014 13.2601 131.843 13.3308C131.673 13.4015 131.49 13.4379 131.306 13.4379H130.815V1.23061C130.815 1.08895 130.842 0.948668 130.897 0.817763C130.951 0.686858 131.03 0.567906 131.13 0.467732C131.23 0.367559 131.349 0.288112 131.479 0.233952C131.61 0.179791 131.75 0.151984 131.892 0.152099Z" fill="#131313"/>
<path d="M143.928 0.152098C144.431 0.152098 144.913 0.351965 145.268 0.707786C145.624 1.06361 145.823 1.54625 145.824 2.04957V11.786H153.006C153.006 12.224 152.832 12.644 152.523 12.9538C152.214 13.2635 151.794 13.4377 151.357 13.4379H143.928V0.152098Z" fill="#131313"/>
<path d="M109.951 11.9189C110.031 11.7482 110.144 11.595 110.283 11.4683C110.422 11.3417 110.586 11.244 110.763 11.1809C110.94 11.1178 111.129 11.0906 111.317 11.1009C111.505 11.1111 111.689 11.1587 111.858 11.2407C112.847 11.7212 113.931 11.9727 115.029 11.9766C117.322 11.9766 118.307 11.0842 118.307 9.92616C118.307 6.68096 110.273 8.7305 110.273 3.79584C110.273 1.74629 111.864 0 115.351 0C116.905 0 118.516 0.417773 119.615 1.17641L118.99 2.69548C117.903 1.99876 116.642 1.62365 115.351 1.61342C113.097 1.61342 112.13 2.5626 112.13 3.71979C112.13 6.96586 120.164 4.93466 120.164 9.81251C120.164 11.8437 118.535 13.5891 115.029 13.5891C113.001 13.5891 111.012 12.9065 109.951 11.9189Z" fill="#131313"/>
<path d="M58.4712 23.3169C58.4712 26.3916 56.1211 28.3276 52.4254 28.3276H50.5117V30.4593C50.5117 30.7606 50.3922 31.0496 50.1794 31.2627C49.9667 31.4758 49.6781 31.5955 49.3773 31.5955H46.0359V18.3105H52.4219C56.1211 18.3061 58.4712 20.2421 58.4712 23.3169ZM53.9604 23.3169C53.9604 22.3493 53.3731 21.7611 52.1418 21.7611H50.5117V24.8735H52.1418C53.3775 24.8735 53.9604 24.2853 53.9604 23.3169Z" fill="#131313"/>
<path d="M138.025 24.9495C138.025 20.929 141.19 18.0029 145.51 18.0029C149.831 18.0029 152.996 20.9255 152.996 24.9495C152.996 28.9734 149.831 31.8961 145.51 31.8961C141.19 31.8961 138.025 28.9734 138.025 24.9495ZM148.485 24.9495C148.485 22.8807 147.159 21.6282 145.51 21.6282C143.862 21.6282 142.535 22.8807 142.535 24.9495C142.535 27.0183 143.862 28.2707 145.51 28.2707C147.159 28.2707 148.481 27.0183 148.481 24.9495H148.485Z" fill="#131313"/>
<path d="M79.1704 28.2742H77.9487V31.6374H73.4485V18.2651H79.8773C83.5983 18.2651 85.964 20.2141 85.964 23.3099C85.964 25.2397 85.0478 26.6914 83.4456 27.513L86.2503 31.6409H83.0651C82.5655 31.6409 82.0734 31.5181 81.6322 31.2832C81.191 31.0484 80.8141 30.7088 80.5344 30.2941L79.1704 28.2742ZM79.5902 21.7392H77.9487V24.8726H79.5902C80.8302 24.8726 81.4228 24.2809 81.4228 23.3064C81.4228 22.3318 80.8302 21.7392 79.5902 21.7392Z" fill="#131313"/>
<path d="M67.0127 29.2767H61.9714L61.0804 31.592H56.533L61.8649 19.3751C62.0036 19.0574 62.2318 18.7872 62.5215 18.5973C62.8111 18.4075 63.1497 18.3063 63.4959 18.3062H66.7247L72.5235 31.5911H67.8984L67.0127 29.2767ZM65.7805 26.0499L64.4916 22.7094L63.2036 26.0499H65.7805Z" fill="#131313"/>
<path d="M97.6462 29.2767H92.6058L91.7148 31.592H87.1674L92.4993 19.3751C92.638 19.0574 92.8661 18.787 93.1558 18.5972C93.4455 18.4073 93.7841 18.3062 94.1303 18.3062H97.3591L103.157 31.5911H98.532L97.6462 29.2767ZM96.4149 26.0499L95.126 22.7094L93.8371 26.0499H96.4149Z" fill="#131313"/>
<path d="M126.46 28.137V31.516H115.432V18.231H126.214V20.0944C126.214 20.2934 126.175 20.4904 126.099 20.6742C126.023 20.858 125.912 21.0251 125.771 21.1657C125.63 21.3064 125.464 21.4179 125.28 21.494C125.096 21.5701 124.9 21.6092 124.701 21.609H119.828V23.1657H125.438V26.3925H119.828V28.1405L126.46 28.137Z" fill="#131313"/>
<path d="M104.043 18.3062H108.515V28.1187H113.177C113.529 28.1187 113.866 28.2586 114.115 28.5077C114.363 28.7569 114.503 29.0948 114.503 29.4471V31.592H104.043V18.3062Z" fill="#131313"/>
<path d="M127.494 18.3062H131.966V28.1187H136.628C136.98 28.1187 137.318 28.2586 137.566 28.5077C137.815 28.7569 137.955 29.0948 137.955 29.4471V31.592H127.494V18.3062Z" fill="#131313"/>
</svg>
